<svg xmlns="http://www.w3.org/2000/svg" xmlns:xlink="http://www.w3.org/1999/xlink" xml:space="preserve" version="1.1" style="shape-rendering:geometricPrecision;text-rendering:geometricPrecision;image-rendering:optimizeQuality;" viewBox="0 0 333 416.25" x="0px" y="0px" fill-rule="evenodd" clip-rule="evenodd"><defs><style type="text/css">
   
    .fil0 {fill:white}
   
  </style></defs><g><g><path class="fil0" d="M265 138c18,47 17,90 17,137l16 0c-4,-71 -3,-105 9,-177l-22 4 -20 36z"/><path class="fil0" d="M82 206c0,0 23,-2 39,-12 17,-11 69,-46 72,-49 -7,8 -13,15 -18,18 -24,18 -52,42 -65,44 -13,2 -16,3 -28,-1z"/><path class="fil0" d="M27 276l118 -1c0,0 44,-61 78,-97 34,-37 84,-70 84,-80 0,-4 -6,-9 -13,-16 -8,-7 -26,-24 -28,-24 -2,0 -3,-1 -7,5 -3,5 -58,86 -82,104 -24,17 -51,42 -64,43 -13,2 -16,4 -28,-1 -12,-4 -21,-10 -32,-5 -11,5 -21,14 -24,28 -3,14 -3,24 -2,29 0,4 0,15 0,15z"/></g></g></svg>